<?xml version="1.0" standalone="no"?>
<!DOCTYPE svg PUBLIC "-//W3C//DTD SVG 20010904//EN"
 "http://www.w3.org/TR/2001/REC-SVG-20010904/DTD/svg10.dtd">
<svg version="1.0" xmlns="http://www.w3.org/2000/svg"
 width="1124.000000pt" height="765.000000pt" viewBox="0 0 1124.000000 765.000000"
 preserveAspectRatio="xMidYMid meet">

<g transform="translate(0.000000,765.000000) scale(0.100000,-0.100000)"
fill="#000000" stroke="none">
<path d="M0 3825 l0 -3825 5620 0 5620 0 0 3825 0 3825 -5620 0 -5620 0 0
-3825z m2854 1301 c72 -54 77 -80 74 -368 -3 -245 -4 -253 -23 -253 -19 0 -20
8 -25 260 -5 282 -7 291 -63 325 -31 19 -59 20 -940 20 -1002 0 -947 4 -987
-63 -19 -31 -20 -55 -20 -665 0 -689 -1 -681 56 -719 26 -17 72 -18 729 -23
692 -5 700 -5 700 -25 0 -20 -8 -20 -495 -23 l-495 -3 -36 -94 -37 -95 529 0
c476 0 530 -2 536 -16 3 -9 0 -20 -8 -25 -8 -5 -258 -9 -555 -9 -451 0 -543 2
-553 14 -9 11 -3 36 29 115 22 56 40 103 40 105 0 3 -85 6 -188 8 l-189 3 -37
29 c-78 59 -76 31 -76 751 0 600 2 643 19 680 20 44 41 66 86 89 27 14 131 16
961 14 l931 -3 37 -29z m-1324 -92 c0 -7 -38 -51 -124 -145 -34 -37 -149 -163
-256 -281 -107 -119 -198 -213 -203 -211 -4 2 -7 136 -6 296 1 283 4 320 33
339 13 9 556 11 556 2z m2479 -562 c41 -119 76 -223 79 -230 3 -10 -5 -13 -33
-10 -37 3 -39 5 -58 61 l-19 57 -94 0 -94 0 -17 -60 c-18 -59 -18 -60 -55 -60
l-36 0 76 230 77 230 50 0 50 0 74 -218z m201 18 l0 -200 115 0 115 0 0 -30 0
-30 -150 0 -150 0 0 230 0 230 35 0 35 0 0 -200z m350 0 l0 -199 113 -3 112
-3 3 -27 3 -28 -150 0 -151 0 0 230 0 230 35 0 35 0 0 -200z m860 170 l0 -30
-107 0 c-123 0 -143 -9 -143 -70 0 -54 12 -60 114 -60 l90 0 38 -37 c36 -35
38 -40 38 -102 0 -60 -3 -68 -32 -98 l-32 -33 -133 0 -133 0 0 30 0 30 116 0
c133 0 143 5 144 74 0 65 -18 76 -124 76 -88 0 -91 1 -123 32 -30 29 -33 37
-33 92 0 54 3 63 32 93 l32 33 128 0 128 0 0 -30z m391 -187 c39 -120 74 -224
77 -231 3 -10 -5 -13 -33 -10 -36 3 -38 5 -54 58 l-17 55 -95 3 -96 3 -18 -61
c-18 -60 -18 -60 -56 -60 l-38 0 71 208 c39 114 74 217 79 230 7 19 16 22 58
22 l49 0 73 -217z m439 187 l0 -30 -120 0 -120 0 0 -70 0 -70 105 0 105 0 0
-30 0 -30 -105 0 -105 0 0 -100 0 -100 -35 0 -35 0 0 230 0 230 155 0 155 0 0
-30z m368 3 l-3 -28 -122 -3 -123 -3 0 -64 0 -65 110 0 110 0 0 -30 0 -30
-110 0 -110 0 0 -75 0 -74 123 -3 122 -3 3 -27 3 -28 -160 0 -161 0 0 230 0
230 161 0 160 0 -3 -27z m516 -2 c45 -47 9 -96 -38 -52 -19 18 -34 21 -102 21
-49 0 -85 -5 -92 -12 -8 -8 -12 -57 -12 -157 0 -179 1 -181 105 -181 63 0 74
3 95 25 28 29 37 31 62 8 18 -16 17 -18 -14 -50 l-32 -33 -117 0 -117 0 -31
35 -31 36 0 156 0 157 37 38 37 38 111 0 c110 0 112 0 139 -29z m413 -3 l33
-32 0 -165 0 -165 -32 -33 -32 -33 -115 0 -115 0 -33 32 -33 32 0 165 0 165
32 33 32 33 115 0 115 0 33 -32z m272 -142 c46 -119 68 -164 75 -154 4 8 36
84 70 169 l62 154 47 3 47 3 0 -230 0 -231 -35 0 -35 0 -2 167 -3 167 -65
-165 c-59 -146 -69 -164 -90 -167 -23 -2 -29 8 -92 165 l-67 168 0 -167 -1
-168 -35 0 -35 0 0 231 0 230 47 -3 46 -3 66 -169z m678 142 c32 -31 33 -35
33 -112 0 -76 -1 -82 -32 -113 -32 -33 -33 -33 -125 -33 l-93 0 0 -85 0 -85
-35 0 -35 0 0 230 0 230 127 0 127 0 33 -32z m153 -155 c0 -228 -2 -223 108
-223 115 0 112 -6 112 222 l0 188 35 0 35 0 0 -197 0 -197 -32 -33 -32 -33
-115 0 -115 0 -33 32 -33 32 0 198 0 198 35 0 35 0 0 -187z m670 157 l0 -30
-65 0 -65 0 0 -200 0 -200 -35 0 -35 0 0 200 0 200 -70 0 -70 0 0 30 0 30 170
0 170 0 0 -30z m370 0 l0 -30 -125 0 -125 0 0 -65 0 -65 110 0 110 0 0 -30 0
-30 -110 0 -110 0 0 -75 0 -74 123 -3 122 -3 3 -27 3 -28 -160 0 -161 0 0 230
0 230 160 0 160 0 0 -30z m367 -2 c32 -31 33 -35 33 -107 0 -71 -2 -77 -32
-108 l-32 -33 33 -72 c50 -111 50 -110 7 -106 -36 3 -38 5 -75 88 l-39 85 -61
3 -61 3 0 -91 0 -90 -35 0 -35 0 0 230 0 230 132 0 132 0 33 -32z m-5017 -243
l0 -25 -110 0 -110 0 0 25 0 25 110 0 110 0 0 -25z m-2034 -33 c28 -22 40 -47
49 -99 6 -41 8 -42 58 -53 29 -6 76 -22 106 -35 l54 -25 45 35 c34 26 55 35
83 35 43 0 65 -17 129 -95 57 -71 56 -104 -8 -164 -47 -44 -48 -47 -36 -76 7
-16 18 -67 25 -111 l12 -82 40 -12 c49 -14 97 -60 97 -92 0 -40 -49 -162 -73
-180 -28 -22 -69 -23 -124 -2 l-43 17 -40 -46 c-22 -25 -60 -58 -85 -74 -49
-31 -50 -31 -34 -86 14 -51 -3 -102 -41 -122 -38 -19 -162 -39 -194 -31 -33 8
-62 54 -70 110 -7 41 -7 42 -64 55 -31 7 -79 24 -105 38 l-49 24 -43 -35 c-35
-29 -52 -36 -86 -36 -38 0 -48 5 -87 48 -99 105 -105 144 -33 211 47 45 48 47
35 76 -7 17 -18 67 -24 111 l-12 81 -41 13 c-52 15 -84 43 -92 81 -9 41 30
148 66 182 34 31 65 34 125 11 l41 -15 57 55 c31 31 70 63 87 72 29 15 30 17
23 57 -19 102 5 141 102 162 83 18 126 17 150 -3z m1432 -734 c3 -14 -7 -18
-64 -20 -51 -2 -70 -7 -78 -20 -20 -32 4 -53 65 -56 68 -4 89 -22 89 -75 0
-64 -19 -77 -112 -77 -62 0 -78 3 -78 15 0 11 17 15 73 17 l72 3 0 40 0 40
-55 3 c-39 2 -61 9 -77 24 -30 28 -30 74 -1 105 20 21 30 23 93 21 56 -2 70
-6 73 -20z m2679 0 c30 -28 29 -55 -2 -88 l-24 -25 23 -30 c24 -30 24 -30 45
-11 16 15 24 17 33 8 9 -9 7 -16 -5 -30 -15 -16 -15 -20 -1 -40 14 -20 14 -23
-1 -28 -8 -4 -22 -1 -29 5 -10 8 -16 9 -21 1 -11 -17 -126 -12 -147 7 -26 23
-22 62 9 95 25 26 25 29 10 46 -59 65 46 150 110 90z m710 0 c28 -27 32 -101
7 -130 -16 -16 -15 -21 4 -68 l21 -50 -23 0 c-17 0 -27 11 -43 50 -20 47 -24
50 -57 50 l-36 0 0 -50 c0 -43 -3 -50 -20 -50 -19 0 -20 7 -20 128 0 71 3 132
7 135 3 4 36 7 72 7 53 0 69 -4 88 -22z m-2067 -24 c0 -33 -33 -30 -38 4 -3
17 2 22 17 22 16 0 21 -6 21 -26z m3480 1 c0 -18 -5 -25 -20 -25 -15 0 -20 7
-20 25 0 18 5 25 20 25 15 0 20 -7 20 -25z m-4438 -52 c11 -10 18 -30 18 -55
l0 -38 -61 0 c-57 0 -60 -1 -57 -22 3 -20 10 -23 61 -26 42 -2 57 -7 57 -17 0
-22 -117 -21 -142 2 -24 22 -26 128 -1 155 21 24 99 25 125 1z m278 5 c0 -9 3
-9 12 0 7 7 25 12 40 12 21 0 28 -5 28 -20 0 -16 -7 -20 -30 -20 -38 0 -50
-23 -50 -94 0 -49 -2 -56 -20 -56 -19 0 -20 7 -20 95 0 88 1 95 20 95 11 0 20
-5 20 -12z m316 -63 c15 -41 31 -72 34 -69 2 3 17 36 31 72 20 50 32 68 48 70
27 4 27 3 -18 -98 -31 -71 -41 -85 -62 -88 -22 -3 -28 6 -62 85 -20 49 -37 92
-37 96 0 4 8 7 19 7 14 0 25 -19 47 -75z m364 -20 c0 -88 -1 -95 -20 -95 -19
0 -20 7 -20 95 0 88 1 95 20 95 19 0 20 -7 20 -95z m362 78 c10 -9 18 -24 18
-35 0 -25 -36 -23 -43 3 -4 16 -12 20 -39 17 l-33 -3 0 -60 0 -60 58 -3 c42
-2 57 -7 57 -17 0 -22 -117 -21 -142 2 -24 22 -26 128 -1 155 21 24 99 25 125
1z m370 0 c11 -10 18 -30 18 -55 l0 -38 -65 0 c-47 0 -65 -4 -65 -13 0 -25 25
-37 77 -37 40 0 53 -4 53 -15 0 -12 -14 -15 -62 -15 -83 0 -108 22 -108 94 0
68 26 96 88 96 28 0 52 -6 64 -17z m1720 0 c11 -10 18 -30 18 -55 l0 -38 -65
0 c-47 0 -65 -4 -65 -13 0 -25 25 -37 77 -37 40 0 53 -4 53 -15 0 -12 -14 -15
-62 -15 -83 0 -108 22 -108 94 0 68 26 96 88 96 28 0 52 -6 64 -17z m268 5 c0
-9 3 -9 12 0 20 20 79 14 105 -10 19 -17 23 -32 23 -76 0 -70 -18 -92 -75 -92
-22 0 -46 5 -53 12 -9 9 -12 2 -12 -35 0 -40 -3 -47 -20 -47 -19 0 -20 7 -20
130 0 123 1 130 20 130 11 0 20 -5 20 -12z m482 -5 c14 -13 18 -31 18 -93 l0
-78 -69 -1 c-62 -1 -72 2 -85 21 -21 30 -20 47 6 75 16 17 32 23 65 23 37 0
44 3 41 18 -2 13 -15 18 -51 20 -33 2 -47 7 -47 18 0 21 98 19 122 -3z m278
-78 c0 -88 -1 -95 -20 -95 -19 0 -20 7 -20 95 0 88 1 95 20 95 19 0 20 -7 20
-95z m260 83 c0 -9 3 -9 12 0 7 7 25 12 40 12 21 0 28 -5 28 -20 0 -16 -7 -20
-30 -20 -38 0 -50 -23 -50 -94 0 -49 -2 -56 -20 -56 -19 0 -20 7 -20 95 0 88
1 95 20 95 11 0 20 -5 20 -12z m-7018 -423 c48 -19 101 -41 117 -50 l31 -16 0
-103 c0 -73 -4 -107 -13 -114 -7 -6 -66 -32 -131 -57 l-118 -46 -113 61 -113
60 -256 0 -256 0 0 -39 c0 -26 -5 -41 -16 -45 -9 -3 -169 -6 -357 -5 -263 0
-348 3 -373 14 -50 21 -64 58 -64 170 0 99 8 126 44 157 19 16 50 17 391 15
l370 -2 3 -37 3 -38 258 0 258 0 109 60 c60 32 116 57 124 54 8 -3 54 -21 102
-39z"/>
<path d="M3851 4528 c-19 -57 -36 -109 -38 -115 -4 -10 14 -13 72 -13 61 0 76
3 72 13 -3 8 -19 60 -37 115 -17 56 -32 102 -33 102 -2 0 -18 -46 -36 -102z"/>
<path d="M5649 4518 l-35 -113 69 -3 c38 -2 72 -1 74 2 5 4 -65 226 -71 226
-2 0 -18 -51 -37 -112z"/>
<path d="M7302 4618 c-8 -8 -12 -58 -12 -158 0 -180 0 -180 112 -180 107 0
108 1 108 181 0 100 -4 149 -12 157 -16 16 -180 16 -196 0z"/>
<path d="M8280 4540 l0 -90 73 0 c94 0 107 12 107 96 0 33 -5 65 -12 72 -7 7
-43 12 -90 12 l-78 0 0 -90z"/>
<path d="M9830 4550 l0 -80 83 0 c51 0 88 5 95 12 7 7 12 37 12 68 0 31 -5 61
-12 68 -7 7 -44 12 -95 12 l-83 0 0 -80z"/>
<path d="M2867 4338 c-61 -13 -81 -39 -67 -88 20 -71 14 -94 -32 -120 -23 -13
-70 -52 -103 -87 l-62 -63 -56 20 c-31 11 -63 20 -70 20 -21 0 -41 -30 -62
-93 -22 -69 -20 -72 68 -107 l62 -25 6 -80 c3 -44 14 -104 24 -133 l19 -54
-52 -47 c-29 -26 -52 -55 -52 -63 0 -9 21 -41 46 -72 58 -70 79 -72 146 -16
l48 41 72 -35 c40 -19 97 -38 126 -42 59 -8 69 -18 78 -89 11 -76 20 -82 105
-67 96 16 114 33 100 93 -18 78 -15 92 26 114 21 11 66 49 102 83 69 69 66 69
158 41 54 -17 71 -3 97 80 23 73 18 82 -57 107 -74 24 -77 28 -77 100 0 38 -9
90 -22 130 l-21 66 51 47 c29 26 52 55 52 63 0 26 -98 138 -120 138 -5 0 -33
-20 -64 -45 l-56 -46 -72 35 c-40 19 -97 38 -126 42 -59 8 -67 16 -77 87 -12
77 -32 87 -138 65z m274 -297 c74 -35 125 -85 161 -158 65 -132 36 -282 -73
-385 -164 -154 -431 -100 -525 107 -22 48 -28 74 -28 135 1 147 83 263 224
314 63 23 180 16 241 -13z"/>
<path d="M2919 4007 c-98 -37 -158 -100 -185 -195 -51 -174 88 -352 274 -352
182 0 319 179 268 353 -34 118 -132 197 -254 204 -41 2 -81 -2 -103 -10z m144
-68 c46 -13 109 -67 131 -113 16 -34 23 -137 9 -135 -5 0 -22 19 -38 42 -79
110 -240 110 -320 0 -16 -23 -33 -42 -37 -42 -5 -1 -8 22 -8 49 0 86 57 167
136 195 48 17 77 18 127 4z"/>
<path d="M7033 3615 c-3 -9 3 -25 13 -36 18 -20 18 -20 37 0 11 11 17 26 14
35 -8 20 -56 21 -64 1z"/>
<path d="M7026 3491 c-31 -34 -17 -56 37 -59 56 -4 61 11 19 51 -34 32 -34 32
-56 8z"/>
<path d="M7700 3585 l0 -46 53 3 52 3 0 40 0 40 -52 3 -53 3 0 -46z"/>
<path d="M4707 3553 c-4 -3 -7 -15 -7 -25 0 -15 8 -18 45 -18 46 0 58 13 33
38 -13 13 -60 16 -71 5z"/>
<path d="M6392 3548 c-25 -25 -13 -38 34 -38 41 0 45 2 42 23 -2 16 -11 23
-33 25 -17 2 -36 -3 -43 -10z"/>
<path d="M8112 3548 c-25 -25 -13 -38 34 -38 41 0 45 2 42 23 -2 16 -11 23
-33 25 -17 2 -36 -3 -43 -10z"/>
<path d="M8502 3537 c-43 -46 -15 -112 45 -105 26 3 28 7 31 51 5 75 -32 101
-76 54z"/>
<path d="M8860 3475 c-18 -22 -5 -45 28 -45 32 0 52 16 52 42 0 14 -8 18 -34
18 -18 0 -39 -7 -46 -15z"/>
<path d="M2263 3087 l-93 -51 0 -52 0 -52 94 -51 c52 -28 103 -51 113 -51 10
0 59 18 108 39 l90 37 0 78 0 78 -95 39 c-52 21 -102 38 -110 38 -8 -1 -57
-24 -107 -52z"/>
<path d="M886 3094 c-22 -21 -23 -191 -2 -220 14 -18 31 -19 355 -22 l341 -3
0 131 0 130 -339 0 c-295 0 -342 -2 -355 -16z"/>
<path d="M1630 2985 l0 -45 245 0 245 0 0 45 0 45 -245 0 -245 0 0 -45z"/>
</g>
</svg>
